<svg xmlns="http://www.w3.org/2000/svg" xmlns:xlink="http://www.w3.org/1999/xlink" width="670" height="336"><style><![CDATA[.A{fill:#f4f4f4;stroke:#8d9ca9;stroke-width:0.5998;stroke-linecap:round;stroke-linejoin:round;stroke-miterlimit:10}.B{fill:#f4f4f4;stroke:#394859;stroke-width:0.5998;stroke-linecap:round;stroke-linejoin:round;stroke-miterlimit:10}.D{fill:#394859;stroke:#394859;stroke-width:0.5998;stroke-linecap:round;stroke-linejoin:round;stroke-miterlimit:10}.E{fill:none;stroke:#8d9ca9;stroke-width:0.5998;stroke-linecap:round;stroke-linejoin:round;stroke-miterlimit:10}.F{fill:none;stroke:#394859;stroke-width:0.5998;stroke-linecap:round;stroke-linejoin:round;stroke-miterlimit:10}.G{fill:#dee1e0}.I{clip-path:url(#B);fill:#8590f6}.M{clip-path:url(#B);fill:#8fd640}.P{fill:none;stroke:#fff;stroke-width:0.5998;stroke-miterlimit:10}.T{fill:#a9b1b7}.U{fill:#007a87;stroke:#007a87;stroke-width:0.5998;stroke-linecap:round;stroke-linejoin:round;stroke-miterlimit:10}.V{fill:none;stroke:#007a87;stroke-width:0.5998;stroke-linecap:round;stroke-linejoin:round;stroke-miterlimit:10}.W{fill:#0c2a31}.X{fill:#ff7352}.Y{fill:#8fd640}.Z{fill:none;stroke:#dee1e0;stroke-width:0.5998;stroke-linecap:round;stroke-linejoin:round;stroke-miterlimit:10}.a{fill:#8d9ca9}.b{fill:#f4f4f4}.c{fill:none;stroke:#a9b1b7;stroke-width:0.5998;stroke-linecap:round;stroke-linejoin:round;stroke-miterlimit:10}.d{fill:#ff7b7d}.e{fill:#394859}.g{fill:#8590f6}.h{clip-path:url(#B)}.i{stroke-miterlimit:10}.j{stroke-width:.6}.k{stroke-linejoin:round}.l{stroke-linecap:round}]]></style><path class="A" d="M371.9 243h-82.7a4.91 4.91 0 0 1-4.9-4.9V119.2a4.91 4.91 0 0 1 4.9-4.9h82.7a4.91 4.91 0 0 1 4.9 4.9v118.9c.1 2.7-2.1 4.9-4.9 4.9z"/><path class="B" d="M284.3 122.1h92.6v113.1h-92.6z"/><path class="A" d="M585.7 5.9v82.7a4.91 4.91 0 0 1-4.9 4.9H461.9a4.91 4.91 0 0 1-4.9-4.9V5.9a4.91 4.91 0 0 1 4.9-4.9h118.9a4.91 4.91 0 0 1 4.9 4.9z"/><path class="B" d="M464.743 93.593V.993h113.1v92.6z"/><path class="A" d="M468.7 253.3l6.6 58.5h36.5l-14-58.5z"/><path d="M468.7 253.3l1.4 12.6 32.2 6.1-4.5-18.7z" fill="#8d9ca9" stroke="#8d9ca9" class="i j k"/><path class="A" d="M447.4 335.1h45.1l19.3-23.3h-36.5zm132.7-74.5H390.4a5.59 5.59 0 0 1-5.6-5.6V106.1a5.59 5.59 0 0 1 5.6-5.6H580a5.59 5.59 0 0 1 5.6 5.6v148.8c.1 3.1-2.4 5.7-5.5 5.7z"/><path class="D" d="M390.4 100.5H580a5.59 5.59 0 0 1 5.6 5.6v132.5H384.8V106.1a5.59 5.59 0 0 1 5.6-5.6z"/><path class="B" d="M391.1 106.8h188.2v125.4H391.1zM239.2 212.7h-49v-30.1h49"/><path class="A" d="M184.8 184.4v26.4c0 1 .8 1.9 1.9 1.9h3.6v-30.1h-3.6c-1.1-.1-1.9.8-1.9 1.8z"/><path class="A" d="M187.5 200.9v-6.7m57.1-9.8v26.4c0 1-.8 1.9-1.9 1.9h-3.6v-30.1h3.6c1.1-.1 1.9.8 1.9 1.8z"/><path class="A" d="M242.7 199.9c0 .5-.4.8-.8.8-.5 0-.8-.4-.8-.8v-4.6c0-.5.4-.8.8-.8.5 0 .8.4.8.8v4.6z"/><path class="B" d="M249.8 207.2v-49h30.1v49"/><path class="D" d="M278.1 152.8h-26.4c-1 0-1.9.8-1.9 1.9v3.6h30.1v-3.6c0-1.1-.8-1.9-1.8-1.9z"/><path class="E" d="M261.5 155.5h6.8"/><path class="D" d="M278.1 212.7h-26.4c-1 0-1.9-.8-1.9-1.9v-3.6h30.1v3.6c0 1-.8 1.9-1.8 1.9z"/><circle class="F" cx="264.9" cy="210" r="1.7"/><path class="B" d="M345.4 304.4v-51.1h31.5v51.1"/><path class="D" d="M374.9 247.6h-27.6c-1.1 0-1.9.9-1.9 1.9v3.7h31.5v-3.7c0-1-.9-1.9-2-1.9z"/><path class="E" d="M357.7 250.4h7"/><path class="D" d="M374.9 310.1h-27.6c-1.1 0-1.9-.9-1.9-1.9v-3.7h31.5v3.7c0 1.1-.9 1.9-2 1.9z"/><circle class="E" cx="361.1" cy="307.3" r="1.8"/><path class="B" d="M391.1 62.3h51v31.4h-51"/><path class="A" d="M448 91.8V64.2c0-1.1-.9-1.9-1.9-1.9h-3.7v31.5h3.7c1-.1 1.9-.9 1.9-2z"/><path class="E" d="M445.1 74.5v7"/><path class="A" d="M385.4 91.8V64.2c0-1.1.9-1.9 1.9-1.9h3.7v31.5h-3.7c-1-.1-1.9-.9-1.9-2z"/><circle class="E" cx="388.3" cy="78" r="1.8"/><path class="G" d="M167.3 217.1s-2.7.6-2.8 1.2c0 .5.9 0 2.9.5 2.1.4-.1-1.7-.1-1.7z"/><path class="D" d="M277.1 218.8h-115c-1.6 0-2.8 1.3-2.8 2.8v95.5H280v-95.5c-.1-1.6-1.3-2.8-2.9-2.8z"/><path class="A" d="M248.2 335.1H127.5l31.8-18h120.6z"/><path class="A" d="M212.9 332.4h-32.4l8-4.6h32.4zm-41-13h85.7m-90.2 2.7h85.2m-90.2 2.8h85.7"/><path class="B" d="M164.6 224.1h110.1v87.8H164.6z"/><path class="A" d="M336.4 317.4h-49.3c-1.5 0-2.8-1.2-2.8-2.8v-64.2c0-1.5 1.2-2.8 2.8-2.8h49.3c1.5 0 2.8 1.2 2.8 2.8v64.2c0 1.5-1.2 2.8-2.8 2.8z"/><path class="B" d="M284.3 252h54.9v60.4h-54.9z"/><defs><path id="A" d="M284.3 122.1h92.6v113.1h-92.6V122.1zm293.6-28.5V1H464.8v92.6h113.1zM391.1 232.2h188.2V106.8H391.1v125.4zm-151.9-49.6h-49v30.1h49v-30.1zm10.6 24.6h30.1v-49h-30.1v49zm95.6 97.2h31.4v-51.2h-31.4v51.2zm96.8-242.1H391v31.4h51.2V62.3zM164.6 311.8h110.1V224H164.6v87.8zm119.7.6h54.9V252h-54.9v60.4z"/></defs><clipPath id="B"><use xlink:href="#A"/></clipPath><path d="M40.2-125.1h745.5v470H40.2z" fill="#ff7b7d" class="h"/><path class="I" d="M40.2 215.5h239.7V345H40.2z"/><path d="M7.6 86.7h239.7v129.5H7.6z" fill="#04c99f" class="h"/><path transform="matrix(-1 0 0 -1 531.7029 302.9386)" d="M247.4 86.7h37v129.5h-37z" fill="#fb956a" class="h"/><path d="M283.6 86.7h97.3v152.5h-97.3z" fill="#ff65be" class="h"/><path class="I" d="M590.7 225.2H688v152.5h-97.3z"/><path class="M" d="M345.4 245.8h35.4v69.7h-35.4z"/><path transform="matrix(-1 0 0 -1 966.541 336.2171)" d="M380.8 97h204.9v142.3H380.8z" fill="#f0bc5f" class="h"/><path class="M" d="M689.4 86.7h41.4v152.5h-41.4z"/><g opacity=".2" class="h P"><path d="M724.7-213.1H164.8m559.9 11.4H164.8m559.9 11.5H164.8m559.9 11.4H164.8m559.9 11.4H164.8M724.7-156H164.8m559.9 11.5H164.8m559.9 11.4H164.8m559.9 11.4H164.8m559.9 11.4H164.8m559.9 11.5H164.8m559.9 11.4H164.8M724.7-76H164.8m559.9 11.5H164.8m559.9 11.4H164.8m559.9 11.4H164.8m559.9 11.4H164.8m559.9 11.5H164.8M724.7-7.4H164.8M724.7 4H164.8m559.9 11.4H164.8m559.9 11.5H164.8m559.9 11.4H164.8m559.9 11.4H164.8m559.9 11.5H164.8m559.9 11.4H164.8m559.9 25.1H164.8m559.9-2.3H164.8m559.9 11.5H164.8m559.9 11.4H164.8m559.9 11.4H164.8m559.9 11.4H164.8m559.9 11.5H164.8M724.7 164H164.8m559.9 11.4H164.8m559.9 11.4H164.8m559.9 11.5H164.8m559.9 11.4H164.8m559.9 11.4H164.8m559.9 11.5H164.8M724.7 244H164.8m559.9 11.4H164.8m559.9 11.4H164.8m559.9 11.5H164.8m559.9 11.4H164.8m559.9 11.4H164.8m559.9 11.4H164.8M724.7 324H164.8m559.9 11.4H164.8m559.9 11.4H164.8"/><path d="M724.7 346.8v-559.9m-11.4 559.9v-559.9m-11.5 559.9v-559.9m-11.4 559.9v-559.9M679 346.8v-559.9m-11.4 559.9v-559.9m-11.5 559.9v-559.9m-11.4 559.9v-559.9m-11.4 559.9v-559.9m-11.4 559.9v-559.9m-11.5 559.9v-559.9M599 346.8v-559.9m-11.4 559.9v-559.9m-11.5 559.9v-559.9m-11.4 559.9v-559.9m-11.4 559.9v-559.9m-11.4 559.9v-559.9m-11.5 559.9v-559.9M519 346.8v-559.9m-11.4 559.9v-559.9m-11.4 559.9v-559.9m-11.5 559.9v-559.9m-11.4 559.9v-559.9m-11.4 559.9v-559.9m-11.5 559.9v-559.9M439 346.8v-559.9m-11.4 559.9v-559.9m-11.4 559.9v-559.9m-11.5 559.9v-559.9m-11.4 559.9v-559.9m-11.4 559.9v-559.9m-11.4 559.9v-559.9M359 346.8v-559.9m-11.4 559.9v-559.9m-11.4 559.9v-559.9m-11.4 559.9v-559.9m-11.5 559.9v-559.9m-11.4 559.9v-559.9m-11.4 559.9v-559.9M279 346.8v-559.9m-11.4 559.9v-559.9m-11.4 559.9v-559.9m-11.4 559.9v-559.9m-11.5 559.9v-559.9m-11.4 559.9v-559.9m-11.4 559.9v-559.9m-11.4 559.9v-559.9m-11.5 559.9v-559.9m-11.4 559.9v-559.9m-11.4 559.9v-559.9"/></g><g fill="none" stroke-width="2.399" class="h i k l"><path d="M159.3 304.2l98.7-105 45.2 66.9 19-110.6L359.8 289 423 173l14.1 12.3 8.2-12.4 10.3 11 24-43.8 23.6 24.9 50.1-132.6L599 81.5l30.7-66.1 20.2 156.4 19-26.9 8 9.5 55-64.6" stroke="#fff"/><path d="M151.8 284.8s10.2-33.2 45.1-44.4 30.7-58.3 69.7-58.3c24.1 0 40.3 32.6 55.1 32.6s24.2-33.8 40.1-33.8 17.4 27.3 42.8 27.3 25.7-56.9 41.9-58.2c8.9-.7 11.9 14 21.6 13.8 20.4-.4 18-116.5 43.6-116.5 14.6 0 13.3 30.7 32.8 30.7 25.1 0 23-77 65.9-77 26.5 0 136.8 79.8 136.8 79.8" stroke="#394859"/></g><use xlink:href="#A" fill="none" stroke="#8d9ca9" class="i j"/><path class="G" d="M102.9 203.8c.2-1.6.5-11.6.5-11.6l-4.2-1.6s-1.2 1.9-2.1 6.7c-.2 1.2-.7 2-.7 2s6.4 5.6 6.5 4.5z"/><path class="T" d="M97.5 192.2s.4-3.2 1.8.8c.9 2.4 3.9 5.9 3.9 5.9l.2-4.5-1.6-3-4.4.1.1.7z"/><path class="G" d="M104.2 181.4c-3.6-.1-6.3 2.2-6.5 6.2 0 1 .8 2.3.8 2.5.4 2.4 1.1 3.1 2.6 4.2 1.6 1.2 3.6 2.1 5.3 1.7 2.2-.5 1.9-4.4 1.9-4.4s.8-.3.9-.7c.1-.3 0-.5-.3-.9-.6-.8-.7-1.6-.8-2.4-.5-3.4-.7-6.1-3.9-6.2z"/><path class="U" d="M96 185.3s-2.2.4-1.6 3c.4 1.4 1.1 2.3 1.1 2.3l-.1-2.4c0-1.6.6-2.9.6-2.9z"/><path class="V" d="M96.8 190.3s-.2-.7.3-1.1c.4-.4.9-.2.9-.2"/><path class="W" d="M97.6 195.4c3.5-1.2 1.1-4.1 1.1-4.1s.8-2.5 1-2.4c1.3.3 1.7-.9 2.1-2.3.3-1.1.1-2.8.1-2.8s2.6-.8 5.6.6c0 0 .1.1.2.6.2.8.3 1.7.3 1.7 1.5-.1 2.3-2.6 1.5-4.7-.7-1.9-3.2-3-4.7-2.9-2.2.2-4.1 1.2-4.1 1.2s-1.4-.4-2.6-.3c-3.6.4-7.1 3.1-6.2 8.8.2 1.6 2.5 2.6 4 4 1 .9 1.7 2.6 1.7 2.6z"/><path class="G" d="M99.7 188.9s-.5-.4-1.3-.3c-1 .1-1.6.9-1.5 1.8s.9 1.6 1.9 1.4c.8-.1 1.2-.7 1.2-.7"/><path class="X" d="M96.3,208.7"/><path class="G" d="M94.7 233.2s-5.6 10.3-3.1 18.1c2.7 8.3 12.5 28.1 12.5 28.1s-1.2 3.8.6 14c1.4 7.7 9.2 36.2 9.2 36.2h3.2l-5.5-49.2c-1.1-7.5-4.5-47.2-4.5-47.2H94.7z"/><path class="W" d="M113.4 336h12.3c1.7 0 2.1-1.5-.4-1.8-3-.4-4.5-.7-6-1.7s-2.1-2.9-2.1-2.9H114l-.6 6.4z"/><path class="G" d="M95.2 233.2s-5.5 7.3-5.6 18.1c-.1 8.3 1.6 28.1 1.6 28.1s-2.4 3.8-3.4 14l-3 36.2H88l10.4-48.9c.9-7.5 2.6-6.6 7.6-35.4l1.1-12-11.9-.1z"/><path class="W" d="M95.2 233.2s-5.5 7.3-5.6 18.1c-.1 8.3 1.6 28.1 1.6 28.1h20.5l-4.5-46.2h-12"/><path class="Y" d="M107.3 209.8l1.7 9.1-3.8-16.9s3.1-1 2.9 0l7 17c1.5 3.5-2.3 9.2-7.5 2.9l.4-4-.7-8.1z"/><path class="Z" d="M108.6 196.8l.1-1.6-.3-1.4m-2.8 7.1l.9-4.1m2.9.7l.3-1.6-.7-1.7"/><path class="Z" d="M109.6 198.7l.8-2-1.2-1.9m.6 4.7l.7-1.4.5-1.5"/><path class="G" d="M105.3 200.4l3.1-4.1 2.1 3.2-2.8 3.2c-.7.5-1.6.4-2.2-.2s-.7-1.5-.2-2.1z"/><path class="Y" d="M91.1 209.7c2.9 15.5 4 23.6 4 23.6h12s.4-9.9.9-13.2c1.4-8 .5-10.8-4.3-17.9-3.4-5.2-14.8-4.1-12.6 7.5z"/><path class="Y" d="M97.2 216.2l-1.3 9.3 17.8 8.7s-.7 2.4-1.7 2c0 0-13.5-2.7-19.6-5.1a4.98 4.98 0 0 1-3.1-4.8l1.5-21.5 6.4 11.4z"/><path class="Z" d="M116 240.5l1.3.6m-.8-1.1l2.4 1.1 2.1-.2m-4.2-1.7l2.9 1 1.5.2m-3.3-1.9l1.7.7 1.2-.8"/><path class="G" d="M111.9 236.8l3.9 4.3 2.6-2.9-4.2-3.7c-.7-.5-1.6-.4-2.2.2a1.81 1.81 0 0 0-.1 2.1z"/><path class="W" d="M84.3 336h12.3c1.7 0 2.5-1.5.1-1.8-2.9-.4-4.3-.7-5.5-1.7s-3.1-2.9-3.1-2.9h-3.2l-.6 6.4zM537 188s0 7.5-3.3 9.7-4.5 2.9-3.8 5.6c.8 3.5 5.5 3 5.5 3l7.7-9.1-6.1-9.2z"/><path class="X" d="M543.4,208"/><path class="A" d="M534.5 330.7l-.9-5.8 4.3-.1.9 6.1z"/><path class="a" d="M545 232.5s1.2 7.6-1.3 15.4c-2.7 8.3-11.8 31-11.8 31s1.2 3.9 2.8 12.1c2.7 13.7 3.9 35.4 3.9 35.4l-5.1.4-9.4-38.9c-1.4-5.1-2.2-9.9-1.1-15.2 2.8-14.4 9.5-40.3 9.5-40.3l12.5.1z"/><path class="W" d="M540 335.3h-12.3c-1.7 0-2.5-1.5-.1-1.8 2.9-.4 4.3-.7 5.6-1.7 1.2-1 .8-2.9.8-2.9h4.9l1.1 6.4z"/><path class="A" d="M546.2 330.6l-.5-5.7 4.3-.1.5 6z"/><path class="a" d="M547.3 232.5s.6 7.4 1.8 18.1c2 18.6 1.7 75.8 1.7 75.8l-5.1-.1s-2.1-38.5-10.9-82.3v-11.5h12.5z"/><path class="T" d="M532.1 213.3l-4 7.9-9.2-16.6s-2.9 2.4-1.8 2.6l7.5 19.7c1 3.4 4.2 3.1 6.8-.5l6.5-8.7-5.8-4.4z"/><path class="b" d="M536.8 203.6c-2.1 4-6.4 12-6.3 12.3.1.2 7.4 3.2 7.4 3.2s5.5-8.3 6.9-12.9c.4-1.2.7-2.7.1-3.7-2.7-4.2-6.8-1.5-8.1 1.1z"/><path class="c" d="M512.2 206.2l-1.5-.7-.7-1.6m7.6.6l-3.9-1.5m-1.2 4.2l-1.6-.5-1.2-1.3"/><path class="c" d="M513.5 207.9l-2.2-.1-1.2-2m4 2.6l-2 .8-1.5-.2"/><path class="T" d="M517.3 204l-5.4 1.7 1.8 3.5 4.6-2.1c.8-.4 1.1-1.3.8-2.1-.3-.7-1.1-1.1-1.8-1z"/><path class="d" d="M550.3 209l.1 23.6h-17.8s-.4-9.9-.9-13.2c-1.4-8-1.1-11.2 4.3-17.9 1.9-2.4 6.7-3.2 10-2.8 2.7.2 4.2 5 4.3 10.3z"/><path class="G" d="M543.4 214.2l1.5 10.7-18.9 5.2s.7 2.4 1.7 2c0 0 12.4-.7 19.8-1.7 2.6-.3 3.2-2.5 3.1-3.9l-1.2-15.5-6 3.2z"/><path class="d" d="M540.9 206.2c.1 5.3 2.3 7.8 2.5 7.9l6.2-1.4s2.5-4.3 1.1-8.8c-.4-1.2-1.7-3.5-2.9-4-4.4-2-6.9 3.5-6.9 6.3z"/><path class="Z" d="M523.7 236.4l-1.3.5m.8-1.1l-2.4 1.1-2-.2m4.1-1.7l-2.8 1-1.5.2m3.2-1.9l-1.7.7-1.2-.8"/><path class="G" d="M527.8 232.6l-3.9 4.3-2.6-2.9 4.2-3.7c.7-.5 1.6-.4 2.2.2.5.6.6 1.5.1 2.1z"/><path class="W" d="M551 335.3h-12.3c-1.7 0-2.5-1.5-.1-1.8 2.9-.4 4.3-.7 5.5-1.7s1.4-2.9 1.4-2.9h4.9l.6 6.4z"/><path class="G" d="M538.6 201.4c-.2-1.6-.5-10.8-.5-10.8l4.2-1.6s1 5.1 2.3 8c.3.6.5 1.5.5 1.5s-6.4 4-6.5 2.9z"/><path class="T" d="M543.9 190.6s-.4-3.2-1.8.8c-.9 2.4-3.9 5.9-3.9 5.9l-.2-4.5 1.6-3 4.4.1-.1.7z"/><path class="G" d="M537.3 179.8c3.6-.1 6.3 2.2 6.5 6.2 0 1-.8 2.3-.8 2.5-.4 2.4-1.1 3.1-2.6 4.2-1.6 1.2-3.6 2.1-5.3 1.7-2.2-.5-1.9-4.4-1.9-4.4s-.8-.3-.9-.7c-.1-.3 0-.5.3-.9.6-.8.7-1.6.8-2.4.4-3.4.7-6.1 3.9-6.2z"/><path class="U" d="M545.4 183.7s2.2.4 1.6 3c-.4 1.4-1.1 2.3-1.1 2.3l.1-2.4c0-1.6-.6-2.9-.6-2.9z"/><path class="V" d="M544.6 188.8s.2-.7-.3-1.1c-.4-.4-.9-.2-.9-.2"/><path class="W" d="M531.9 180.4c.7-1.9 3.3-3 4.8-2.9 2.2.2 4.1 1.2 4.1 1.2s1.4-.4 2.6-.3c3.6.4 7.1 3.1 6.2 8.8-1 6.3 4.3 4.6 3.1 10.4-1.1 5.1-6.7 3.9-8.4 2.6-6.5-4.9-1.5-10.4-1.5-10.4s-.7-2.5-1-2.4c-1.3.3-1.7-.9-2.1-2.3-.3-1.1-.1-2.8-.1-2.8s-2.6-.8-5.6.6c0 0-.1.1-.2.6-.2.9-.3 1.7-.3 1.7-1.5-.3-2.3-2.7-1.6-4.8z"/><path class="G" d="M541.8 187.4s.5-.4 1.3-.3c1 .1 1.6.9 1.5 1.8s-.9 1.6-1.9 1.4c-.8-.1-1.2-.7-1.2-.7"/><path class="W" d="M387.8 335.3h17.8s.6-1.3-2.4-2.1-5.1-1.3-5.9-2.6c-.9-1.2-.5-4.1-.5-4.1h-7.4l-1.6 8.8z"/><path class="W" d="M403.5 335.3h19.9s1.1-1.3-1.9-2.1-8.2-1.3-9.1-2.6c.3.5-.3-5.8-.5-4.1h-7.4l-1 8.8z"/><path class="e" d="M395.8 235.9c.1 25.6-.7 35-3.5 61.4l-4 34.2s3.2-2.2 4.2-2.6c.9-.3 4.2-.3 4.2-.3s6.8-29 8.1-40.2c1.7-15.5 4.1-33.1 4.5-52.5h-13.5z"/><path class="e" d="M417.3 235.9c-.2 22.2-.1 22.2-1.4 53.3-.7 18.2-3.5 40.1-3.5 40.1l-8.5 3.1 1.1-43.3c.2-17-.1-17-2-53.1h14.3z"/><path class="X" d="M402.2,201"/><path d="M405.7,192.2" fill="#ffb400" stroke="#007a87" class="i j k l"/><path class="e" d="M401.4 192.9l.7-11 3.2-.5v4.1l3.9 2.3.3 6.5"/><path class="W" d="M405.5 183.5s-2.1-2.6-1.3 1.7c.2 1 5.2 6.6 5.2 6.6l-.2-4.1-2-2.8-.5-2.1-1.2.7z"/><path class="e" d="M409.3 174.5c-3.5 0-6.1 2.3-6.1 6.1 0 .9.8 2.2.9 2.4.5 2.3 1 3.1 2.6 4 2.1 1.2 3.5 1.9 5.1 1.5 2.1-.5 1.8-4.8 1.8-4.8s.8-.3.9-.7c0-.3 0-.5-.3-.9-.6-.8-.7-1.5-.8-2.3-.6-3.1-1-5.2-4.1-5.3z"/><path class="W" d="M398.9 174.5c1.8-2 9.9-4.8 12.8-2.2 1.1 1 1 2.7.2 3.1-.9.5-2.9 1-5 1-1.2 0-1.7.6-1.3 1.2 1.6 2.4-.4 4.3-1.4 4.1l.1-.9c-.4-2.1-.1.3-.3 1.7 0 0 .1 1.5-.5 2.2-1.5 1.9-2 2.2-2 2.2-2.5-4.4-6.2-8.3-2.6-12.4z"/><path class="e" d="M404.5 182.9c-.8.1-1.6-.6-1.7-1.6-.1-.9.5-1.8 1.3-1.9s1.5.6 1.6 1.6v1"/><path class="g" d="M407.9 193.1c-1.8-.3-7.3-.7-7.3-.7-2 1.2-4.5 2.8-5.8 4.1-2.1 2.1-2.4 4.9-2.3 15.3 0 9.9 2.8 14.3 3.4 30.6 0 0 5.6-2.1 13.3.9 9.7 3.8 8.2-2.3 8.2-2.3s1.4-26.3-2.5-38.6c-2.2-6.2-3.6-8.6-7-9.3z"/><path class="g" d="M398.2 245.9l-10-18.6c-1.2-2.6-1.6-5.5-1-8.4l6.2-20.2 9.1 5.6-6.4 17.5 7.4 20.4-5.3 3.7z"/><path class="F" d="M447.6 216.8l3-1.7 1.9-2.1m-4.1 2.7l2.1-1.3 2-1.8m-4.9 2.2l3.5-1.6 1.2-1.1m-4.6 1.3l2.9-1 1.1-.7m-7.2 2l3.2-2"/><path class="e" d="M442.4 217.1l5.5.2-.1-4.5-5.7.9c-.9.2-1.4 1.1-1.3 1.9.1.9.8 1.5 1.6 1.5z"/><path class="g" d="M442.5 213.6c-.4.2-18.3 2.4-18.3 2.4l-11.6-19c-1.6-2.5-8.2-3.1-10.1 2.2-.4 1.3-.2 3.8.3 5 1.9 4.6 15.5 19.5 15.5 19.5.9 1.2 2.4 1.8 3.8 1.4 4.8-1.3 16.8-3.6 20.5-4.9 1.1-.3-.1-6.6-.1-6.6z"/><path class="b" d="M400.4 192.9l.5-1.5 7 1.7-1.2 3.3zm10.7 1.7l-.5-1.5h-2.7l1.2 3.3z"/></svg>